<svg xmlns="http://www.w3.org/2000/svg" viewBox="0 0 16 16" width="100" height="100">
    <rect width="100%" height="100%" fill="#333" rx="4"/> <!-- Dark background with rounded corners -->
    <path fill="white" d="M8 0C3.58 0 0 3.58 0 8c0 3.54 2.29 6.54 5.47 7.59.4.07.55-.17.55-.38 0-.19-.01-.73-.01-1.43-2.24.49-2.71-1.08-2.71-1.08-.36-.91-.88-1.15-.88-1.15-.72-.49.05-.48.05-.48.79.06 1.27.81 1.27.81.7 1.2 1.84.85 2.29.65.07-.51.27-.85.49-1.05-1.73-.2-3.55-.87-3.55-3.87 0-.85.3-1.55.79-2.1-.08-.2-.34-1.02.07-2.12 0 0 .66-.21 2.16.79A7.48 7.48 0 0 1 8 2.5c.67 0 1.34.09 1.96.26 1.5-1 2.16-.79 2.16-.79.41 1.1.15 1.92.07 2.12.49.55.79 1.25.79 2.1 0 3-1.82 3.67-3.55 3.87.28.24.52.73.52 1.47 0 1.06-.01 1.91-.01 2.17 0 .21.15.46.55.38C13.71 14.54 16 11.54 16 8c0-4.42-3.58-8-8-8z"/>
</svg>